<svg xmlns="http://www.w3.org/2000/svg" x="0px" y="0px"
width="30" height="30"
viewBox="0 0 172 172"
style=" fill:#000000;"><g fill="none" fill-rule="nonzero" stroke="none" stroke-width="1" stroke-linecap="butt" stroke-linejoin="miter" stroke-miterlimit="10" stroke-dasharray="" stroke-dashoffset="0" font-family="none" font-weight="none" font-size="none" text-anchor="none" style="mix-blend-mode: normal"><path d="M0,172v-172h172v172z" fill="none"></path><g id="original-icon" fill="#ffffff"><path d="M33.02266,5.76693c-5.56133,0 -10.08932,4.52799 -10.08932,10.08932v19.95469c0,5.56133 4.52799,10.08932 10.08932,10.08932h12.84401v86c0,9.48293 7.71707,17.2 17.2,17.2h28.66667v6.70755c0,5.79067 4.70178,10.49245 10.49245,10.49245h36.34844c5.79067,0 10.49245,-4.70178 10.49245,-10.49245v-24.88177c0,-5.79067 -4.70178,-10.49245 -10.49245,-10.49245h-36.34844c-5.79067,0 -10.49245,4.70178 -10.49245,10.49245v6.70755h-28.66667c-3.1648,0 -5.73333,-2.56853 -5.73333,-5.73333v-45.86667h34.4v6.70755c0,5.79067 4.70178,10.49245 10.49245,10.49245h36.34844c5.79067,0 10.49245,-4.70178 10.49245,-10.49245v-24.88177c0,-5.79067 -4.70178,-10.49245 -10.49245,-10.49245h-36.34844c-5.79067,0 -10.49245,4.70179 -10.49245,10.49245v6.70755h-34.4v-28.66666h12.84401c5.56133,0 10.08933,-4.52799 10.08933,-10.08932v-19.95469c0,-5.56133 -4.52799,-10.08932 -10.08933,-10.08932zM103.2,68.83359h34.4v22.93333h-34.4z"></path></g></g></svg>