<svg xmlns="http://www.w3.org/2000/svg" x="0px" y="0px"
width="30" height="30"
viewBox="0 0 172 172"
style=" fill:#000000;"><g fill="none" fill-rule="nonzero" stroke="none" stroke-width="1" stroke-linecap="butt" stroke-linejoin="miter" stroke-miterlimit="10" stroke-dasharray="" stroke-dashoffset="0" font-family="none" font-weight="none" font-size="none" text-anchor="none" style="mix-blend-mode: normal"><path d="M0,172v-172h172v172z" fill="none"></path><g fill="#ffffff"><path d="M40.13333,0l-17.2,17.2h11.46667v28.66667h11.46667v-28.66667h11.46667zM131.86667,22.93333c-9.4993,0 -17.2,7.7007 -17.2,17.2c0,9.4993 7.7007,17.2 17.2,17.2c9.4993,0 17.2,-7.7007 17.2,-17.2c0,-9.4993 -7.7007,-17.2 -17.2,-17.2zM86,40.13333c-9.4993,0 -17.2,7.7007 -17.2,17.2c0,9.4993 7.7007,17.2 17.2,17.2c9.4993,0 17.2,-7.7007 17.2,-17.2c0,-9.4993 -7.7007,-17.2 -17.2,-17.2zM40.13333,57.33333c-9.4993,0 -17.2,7.7007 -17.2,17.2c0,9.4993 7.7007,17.2 17.2,17.2c9.4993,0 17.2,-7.7007 17.2,-17.2c0,-9.4993 -7.7007,-17.2 -17.2,-17.2zM126.13333,68.8c-7.7744,0 -14.26668,5.19225 -16.39375,12.27292c6.45,5.2632 10.66042,13.17162 10.66042,22.12708v11.46667h34.4v-28.66667c0,-9.50013 -7.69987,-17.2 -17.2,-17.2zM80.26667,86c-7.7744,0 -14.26668,5.19225 -16.39375,12.27292c6.45,5.2632 10.66042,13.17162 10.66042,22.12708v11.46667h34.4v-28.66667c0,-9.50013 -7.69987,-17.2 -17.2,-17.2zM34.4,103.2c-9.50013,0 -17.2,7.69987 -17.2,17.2v28.66667h45.86667v-28.66667c0,-9.50013 -7.69987,-17.2 -17.2,-17.2z"></path></g></g></svg>